For English, please scroll down!

************************************************************
Pitch Black (2000)

Australië / Verenigde Staten, Actie / Science-Fiction, 109 minuten / 112 minuten (unrated version). Geregisseerd door David Twohy. Met Vin Diesel, Radha Mitchell en Cole Hauser.

Getroffen door een meteorietenregen moet een transportschip, met aan boord de levensgevaarlijke gevangene Riddick, een noodlanding maken op een afgelegen en levenloze planeet. Wanneer echter een eclips de planeet in volledige duisternis hult worden de overlevenden van de crash geconfronteerd met de monsterlijke bewoners van de planeet die slechts één vijand kennen: licht. Hun enige redding blijkt Riddick te zijn, wiens bijzondere gezichtsvermogen hem in staat stelt in het pikkedonker te kunnen zien. Maar leg je je lot in handen van een moordenaar?

Taal: Engels & Duits (5.1)
Ondertitelingen: Engels, Duits en Nederlands.
Categorie : Beeld
Formaat : DVD5 
Bron : Retail
Genre : Actie/ Science-Fiction
Weblink : http://www.moviemeter.nl/film/46

******************************

Australia / USA, Action / Science-Fiction, 109 minutes / 112 minutes (unrated version). Directe by David Twohy. With Vin Diesel, Radha Mitchell and Cole Hauser.

Dangerous criminal Richard B. Riddick is being transported to prison in a cargo spacecraft. When the spaceship is damaged by comet debris and makes an emergency crash landing on an empty desert planet, Riddick escapes. However, when predatory flying alien creatures begin attacking the survivors, Riddick joins forces with the crew to develop a plan to escape the planet.

Language: English and German (5.1)
Subtitles: English, German and Dutch
Category : Movie 
Format : DVD5
Source : Retail
Genre : Action/ Science-Fiction
Weblink : http://www.imdb.com/title/tt0134847/ 

Video and Audio information:
******************************
Video
ID                               : 224 (0xE0)
Format                           : MPEG Video
Format version                   : Version 2
Format profile                   : Main@Main
Format settings, BVOP            : Yes
Format settings, Matrix          : Default
Duration                         : 28mn 30s
Bit rate mode                    : Variable
Bit rate                         : 4 538 Kbps
Nominal bit rate                 : 9 800 Kbps
Width                            : 720 pixels
Height                           : 576 pixels
Display aspect ratio             : 16:9
Frame rate                       : 25.000 fps
Standard                         : PAL
Color space                      : YUV
Chroma subsampling               : 4:2:0
Bit depth                        : 8 bits
Bits/(Pixel*Frame)               : 0.438
Stream size                      : 925 MiB (90%)

Audio
ID                               : 128 (0x80)
Format                           : AC-3
Format/Info                      : Audio Coding 3
Mode extension                   : CM (complete main)
Duration                         : 28mn 30s
Bit rate mode                    : Constant
Bit rate                         : 384 Kbps
Channel(s)                       : 6 channels
Channel positions                : Front: L C R, Side: L R, LFE
Sampling rate                    : 48.0 KHz
Bit depth                        : 16 bits
Stream size                      : 78.3 MiB (8%)

******************************
Hornigold TBS